<?xml version="1.0" encoding="utf-8"?>
<!-- Generator: Adobe Illustrator 26.1.0, SVG Export Plug-In . SVG Version: 6.00 Build 0)  -->
<svg version="1.1" xmlns="http://www.w3.org/2000/svg" xmlns:xlink="http://www.w3.org/1999/xlink" x="0px" y="0px"
	 viewBox="0 0 774.4 515.9" style="enable-background:new 0 0 774.4 515.9;" xml:space="preserve">
<style type="text/css">
	.st0{fill:#EDEDED;}
	.st1{fill:#EDEDED;stroke:#FFFFFF;stroke-miterlimit:10;}
	.st2{fill:none;}
	.st3{clip-path:url(#SVGID_00000000927853913828924790000007020941947557807807_);}
	.st4{fill:none;stroke:#EBEBEB;stroke-width:0.53;stroke-linejoin:round;stroke-miterlimit:10;}
	.st5{fill:none;stroke:#EBEBEB;stroke-width:1.07;stroke-linejoin:round;stroke-miterlimit:10;}
	.st6{fill:none;stroke:#F8766D;stroke-width:1.07;stroke-linejoin:round;stroke-miterlimit:10;}
	.st7{clip-path:url(#SVGID_00000071550074371405544630000012076916771668123017_);}
	.st8{fill:none;stroke:#00BA38;stroke-width:1.07;stroke-linejoin:round;stroke-miterlimit:10;}
	.st9{clip-path:url(#SVGID_00000035530066054045191760000003416593823687145869_);}
	.st10{fill:none;stroke:#619CFF;stroke-width:1.07;stroke-linejoin:round;stroke-miterlimit:10;}
	.st11{clip-path:url(#SVGID_00000027585591134343505490000015605792407614369468_);}
	.st12{fill:#1A1A1A;}
	.st13{font-family:'ArialMT';}
	.st14{font-size:8.8px;}
	.st15{clip-path:url(#SVGID_00000124143584445130047870000010845975340735290003_);}
	.st16{clip-path:url(#SVGID_00000002366952539484387610000015582624582199665825_);}
	.st17{enable-background:new    ;}
	.st18{letter-spacing:1;}
	.st19{clip-path:url(#SVGID_00000164505918720904023830000014688424688294678925_);}
	.st20{fill:#4D4D4D;}
	.st21{font-size:11px;}
	.st22{fill:none;stroke:#878787;stroke-miterlimit:10;}
	.st23{fill:none;stroke:#878787;stroke-miterlimit:10;stroke-dasharray:8.1938,8.1938;}
	.st24{fill:none;stroke:#878787;stroke-miterlimit:10;stroke-dasharray:8.6112,8.6112;}
	.st25{fill:none;stroke:#878787;stroke-miterlimit:10;stroke-dasharray:7.4524,7.4524;}
	.st26{fill:none;stroke:#878787;stroke-miterlimit:10;stroke-dasharray:7.8405,7.8405;}
	.st27{fill:none;stroke:#878787;stroke-miterlimit:10;stroke-dasharray:7.4879,7.4879;}
	.st28{fill:#00BFC4;}
	.st29{font-size:10px;}
	.st30{fill:none;stroke:#878787;stroke-miterlimit:10;stroke-dasharray:4.6518,4.6518;}
	.st31{fill:none;stroke:#878787;stroke-miterlimit:10;stroke-dasharray:6.325,6.325;}
	.st32{fill:none;stroke:#878787;stroke-miterlimit:10;stroke-dasharray:6.2045,6.2045;}
	.st33{fill:none;stroke:#878787;stroke-miterlimit:10;stroke-dasharray:5.0431,5.0431;}
	.st34{fill:none;stroke:#939393;stroke-miterlimit:10;}
	.st35{fill:none;stroke:#878787;stroke-miterlimit:10;stroke-dasharray:8.9154,8.9154;}
	.st36{fill:none;stroke:#878787;stroke-miterlimit:10;stroke-dasharray:8.6352,8.6352;}
	.st37{fill:#FFFFFF;}
	.st38{fill:none;stroke:#878787;stroke-miterlimit:10;stroke-dasharray:8.0601,8.0601;}
	.st39{fill:none;stroke:#878787;stroke-miterlimit:10;stroke-dasharray:4.5511,4.5511;}
</style>
<g id="Grey_highlights">
	<rect x="238.2" y="165.3" class="st0" width="30.3" height="286.8"/>
	<rect x="299.4" y="165" class="st0" width="30.3" height="286.6"/>
	<rect x="361.1" y="165" class="st0" width="30.3" height="286.6"/>
	<rect x="423.2" y="165" class="st1" width="30.3" height="286.8"/>
	<rect x="453.9" y="165" class="st1" width="30.3" height="286.6"/>
	<rect x="176" y="166.2" class="st0" width="31.1" height="286.8"/>
	<rect x="639.4" y="164.6" class="st0" width="30.3" height="286.6"/>
	<rect x="515.6" y="165.3" class="st1" width="30.9" height="286.8"/>
	<rect x="546.5" y="165.3" class="st1" width="30.5" height="286.6"/>
</g>
<g id="Layer_1">
	<rect x="32.6" y="155.9" class="st2" width="720" height="360"/>
	<g>
		<defs>
			<rect id="SVGID_1_" x="32.6" y="155.9" width="720" height="360"/>
		</defs>
		<clipPath id="SVGID_00000084490470461821578850000004927507075782990986_">
			<use xlink:href="#SVGID_1_"  style="overflow:visible;"/>
		</clipPath>
	</g>
	<g>
		<defs>
			<rect id="SVGID_00000093167346701195101360000000803807593129284503_" x="85.1" y="161.4" width="645" height="94"/>
		</defs>
		<clipPath id="SVGID_00000093866813971319999300000013410155703374726576_">
			<use xlink:href="#SVGID_00000093167346701195101360000000803807593129284503_"  style="overflow:visible;"/>
		</clipPath>
		<g style="clip-path:url(#SVGID_00000093866813971319999300000013410155703374726576_);">
			<line class="st4" x1="85.1" y1="248.8" x2="730.1" y2="248.8"/>
			<line class="st4" x1="85.1" y1="225.1" x2="730.1" y2="225.1"/>
			<line class="st4" x1="85.1" y1="201.4" x2="730.1" y2="201.4"/>
			<line class="st4" x1="85.1" y1="177.6" x2="730.1" y2="177.6"/>
			<line class="st4" x1="95.7" y1="255.4" x2="95.7" y2="161.4"/>
			<line class="st4" x1="133.1" y1="255.4" x2="133.1" y2="161.4"/>
			<line class="st4" x1="167.3" y1="255.4" x2="167.3" y2="161.4"/>
			<line class="st4" x1="199.3" y1="255.4" x2="199.3" y2="161.4"/>
			<line class="st4" x1="231.2" y1="255.4" x2="231.2" y2="161.4"/>
			<line class="st4" x1="265.4" y1="255.4" x2="265.4" y2="161.4"/>
			<line class="st4" x1="299.6" y1="255.4" x2="299.6" y2="161.4"/>
			<line class="st4" x1="332.6" y1="255.4" x2="332.6" y2="161.4"/>
			<line class="st4" x1="365.7" y1="255.4" x2="365.7" y2="161.4"/>
			<line class="st4" x1="399.9" y1="255.4" x2="399.9" y2="161.4"/>
			<line class="st4" x1="434" y1="255.4" x2="434" y2="161.4"/>
			<line class="st4" x1="467.1" y1="255.4" x2="467.1" y2="161.4"/>
			<line class="st4" x1="500.2" y1="255.4" x2="500.2" y2="161.4"/>
			<line class="st4" x1="534.3" y1="255.4" x2="534.3" y2="161.4"/>
			<line class="st4" x1="568.5" y1="255.4" x2="568.5" y2="161.4"/>
			<line class="st4" x1="602.7" y1="255.4" x2="602.7" y2="161.4"/>
			<line class="st4" x1="636.8" y1="255.4" x2="636.8" y2="161.4"/>
			<line class="st4" x1="669.9" y1="255.4" x2="669.9" y2="161.4"/>
			<line class="st4" x1="703" y1="255.4" x2="703" y2="161.4"/>
			<line class="st5" x1="85.1" y1="236.9" x2="730.1" y2="236.9"/>
			<line class="st5" x1="85.1" y1="213.2" x2="730.1" y2="213.2"/>
			<line class="st5" x1="85.1" y1="189.5" x2="730.1" y2="189.5"/>
			<line class="st5" x1="85.1" y1="165.8" x2="730.1" y2="165.8"/>
			<line class="st5" x1="114.4" y1="255.4" x2="114.4" y2="161.4"/>
			<line class="st5" x1="151.9" y1="255.4" x2="151.9" y2="161.4"/>
			<line class="st5" x1="182.7" y1="255.4" x2="182.7" y2="161.4"/>
			<line class="st5" x1="215.8" y1="255.4" x2="215.8" y2="161.4"/>
			<line class="st5" x1="246.7" y1="255.4" x2="246.7" y2="161.4"/>
			<line class="st5" x1="284.1" y1="255.4" x2="284.1" y2="161.4"/>
			<line class="st5" x1="315" y1="255.4" x2="315" y2="161.4"/>
			<line class="st5" x1="350.3" y1="255.4" x2="350.3" y2="161.4"/>
			<line class="st5" x1="381.1" y1="255.4" x2="381.1" y2="161.4"/>
			<line class="st5" x1="418.6" y1="255.4" x2="418.6" y2="161.4"/>
			<line class="st5" x1="449.5" y1="255.4" x2="449.5" y2="161.4"/>
			<line class="st5" x1="484.7" y1="255.4" x2="484.7" y2="161.4"/>
			<line class="st5" x1="515.6" y1="255.4" x2="515.6" y2="161.4"/>
			<line class="st5" x1="553.1" y1="255.4" x2="553.1" y2="161.4"/>
			<line class="st5" x1="583.9" y1="255.4" x2="583.9" y2="161.4"/>
			<line class="st5" x1="621.4" y1="255.4" x2="621.4" y2="161.4"/>
			<line class="st5" x1="652.3" y1="255.4" x2="652.3" y2="161.4"/>
			<line class="st5" x1="687.5" y1="255.4" x2="687.5" y2="161.4"/>
			<line class="st5" x1="718.4" y1="255.4" x2="718.4" y2="161.4"/>
			<polyline class="st6" points="114.4,204.9 145.3,233.9 176.1,251.1 207,165.7 237.8,223 268.7,221.5 299.6,237.5 330.4,241.2 
				361.3,215.3 392.2,180.7 423,189.5 453.9,233.7 484.7,202.5 515.6,206.2 546.5,227.3 577.3,196.7 608.2,237.6 639,205.6 
				669.9,228.2 700.8,200.9 			"/>
		</g>
	</g>
	<g>
		<defs>
			<rect id="SVGID_00000070115092938300594450000015312409738444919213_" x="32.6" y="155.9" width="720" height="360"/>
		</defs>
		<clipPath id="SVGID_00000133497226641761762320000006698251054619174583_">
			<use xlink:href="#SVGID_00000070115092938300594450000015312409738444919213_"  style="overflow:visible;"/>
		</clipPath>
	</g>
	<g>
		<defs>
			<rect id="SVGID_00000037656315247818990920000014186048265149051578_" x="85.1" y="260.9" width="645" height="94"/>
		</defs>
		<clipPath id="SVGID_00000027584997289689837730000017653389346248024977_">
			<use xlink:href="#SVGID_00000037656315247818990920000014186048265149051578_"  style="overflow:visible;"/>
		</clipPath>
		<g style="clip-path:url(#SVGID_00000027584997289689837730000017653389346248024977_);">
			<line class="st4" x1="85.1" y1="346.8" x2="730.1" y2="346.8"/>
			<line class="st4" x1="85.1" y1="324.1" x2="730.1" y2="324.1"/>
			<line class="st4" x1="85.1" y1="301.5" x2="730.1" y2="301.5"/>
			<line class="st4" x1="85.1" y1="278.9" x2="730.1" y2="278.9"/>
			<line class="st4" x1="95.7" y1="354.9" x2="95.7" y2="260.9"/>
			<line class="st4" x1="133.1" y1="354.9" x2="133.1" y2="260.9"/>
			<line class="st4" x1="167.3" y1="354.9" x2="167.3" y2="260.9"/>
			<line class="st4" x1="199.3" y1="354.9" x2="199.3" y2="260.9"/>
			<line class="st4" x1="231.2" y1="354.9" x2="231.2" y2="260.9"/>
			<line class="st4" x1="265.4" y1="354.9" x2="265.4" y2="260.9"/>
			<line class="st4" x1="299.6" y1="354.9" x2="299.6" y2="260.9"/>
			<line class="st4" x1="332.6" y1="354.9" x2="332.6" y2="260.9"/>
			<line class="st4" x1="365.7" y1="354.9" x2="365.7" y2="260.9"/>
			<line class="st4" x1="399.9" y1="354.9" x2="399.9" y2="260.9"/>
			<line class="st4" x1="434" y1="354.9" x2="434" y2="260.9"/>
			<line class="st4" x1="467.1" y1="354.9" x2="467.1" y2="260.9"/>
			<line class="st4" x1="500.2" y1="354.9" x2="500.2" y2="260.9"/>
			<line class="st4" x1="534.3" y1="354.9" x2="534.3" y2="260.9"/>
			<line class="st4" x1="568.5" y1="354.9" x2="568.5" y2="260.9"/>
			<line class="st4" x1="602.7" y1="354.9" x2="602.7" y2="260.9"/>
			<line class="st4" x1="636.8" y1="354.9" x2="636.8" y2="260.9"/>
			<line class="st4" x1="669.9" y1="354.9" x2="669.9" y2="260.9"/>
			<line class="st4" x1="703" y1="354.9" x2="703" y2="260.9"/>
			<line class="st5" x1="85.1" y1="335.5" x2="730.1" y2="335.5"/>
			<line class="st5" x1="85.1" y1="312.8" x2="730.1" y2="312.8"/>
			<line class="st5" x1="85.1" y1="290.2" x2="730.1" y2="290.2"/>
			<line class="st5" x1="85.1" y1="267.5" x2="730.1" y2="267.5"/>
			<line class="st5" x1="114.4" y1="354.9" x2="114.4" y2="260.9"/>
			<line class="st5" x1="151.9" y1="354.9" x2="151.9" y2="260.9"/>
			<line class="st5" x1="182.7" y1="354.9" x2="182.7" y2="260.9"/>
			<line class="st5" x1="215.8" y1="354.9" x2="215.8" y2="260.9"/>
			<line class="st5" x1="246.7" y1="354.9" x2="246.7" y2="260.9"/>
			<line class="st5" x1="284.1" y1="354.9" x2="284.1" y2="260.9"/>
			<line class="st5" x1="315" y1="354.9" x2="315" y2="260.9"/>
			<line class="st5" x1="350.3" y1="354.9" x2="350.3" y2="260.9"/>
			<line class="st5" x1="381.1" y1="354.9" x2="381.1" y2="260.9"/>
			<line class="st5" x1="418.6" y1="354.9" x2="418.6" y2="260.9"/>
			<line class="st5" x1="449.5" y1="354.9" x2="449.5" y2="260.9"/>
			<line class="st5" x1="484.7" y1="354.9" x2="484.7" y2="260.9"/>
			<line class="st5" x1="515.6" y1="354.9" x2="515.6" y2="260.9"/>
			<line class="st5" x1="553.1" y1="354.9" x2="553.1" y2="260.9"/>
			<line class="st5" x1="583.9" y1="354.9" x2="583.9" y2="260.9"/>
			<line class="st5" x1="621.4" y1="354.9" x2="621.4" y2="260.9"/>
			<line class="st5" x1="652.3" y1="354.9" x2="652.3" y2="260.9"/>
			<line class="st5" x1="687.5" y1="354.9" x2="687.5" y2="260.9"/>
			<line class="st5" x1="718.4" y1="354.9" x2="718.4" y2="260.9"/>
			<polyline class="st8" points="114.4,312.9 145.3,295.6 176.1,318.9 207,265.2 237.8,309.3 268.7,335.6 299.6,350.6 330.4,331.2 
				361.3,333.1 392.2,286 423,297.5 453.9,295.7 484.7,297.4 515.6,292.4 546.5,331.5 577.3,308.7 608.2,299.8 639,280.8 
				669.9,303.4 700.8,295.2 			"/>
		</g>
	</g>
	<g>
		<defs>
			<rect id="SVGID_00000010993734210516119790000017056089438798714801_" x="32.6" y="155.9" width="720" height="360"/>
		</defs>
		<clipPath id="SVGID_00000008107895279112370100000006669143522631524791_">
			<use xlink:href="#SVGID_00000010993734210516119790000017056089438798714801_"  style="overflow:visible;"/>
		</clipPath>
	</g>
	<g>
		<defs>
			<rect id="SVGID_00000087404215272818275430000017241837362303751298_" x="85.1" y="360.4" width="645" height="94"/>
		</defs>
		<clipPath id="SVGID_00000148655475785112366280000017452959583886741661_">
			<use xlink:href="#SVGID_00000087404215272818275430000017241837362303751298_"  style="overflow:visible;"/>
		</clipPath>
		<g style="clip-path:url(#SVGID_00000148655475785112366280000017452959583886741661_);">
			<line class="st4" x1="85.1" y1="438.2" x2="730.1" y2="438.2"/>
			<line class="st4" x1="85.1" y1="411.4" x2="730.1" y2="411.4"/>
			<line class="st4" x1="85.1" y1="384.6" x2="730.1" y2="384.6"/>
			<line class="st4" x1="95.7" y1="454.3" x2="95.7" y2="360.4"/>
			<line class="st4" x1="133.1" y1="454.3" x2="133.1" y2="360.4"/>
			<line class="st4" x1="167.3" y1="454.3" x2="167.3" y2="360.4"/>
			<line class="st4" x1="199.3" y1="454.3" x2="199.3" y2="360.4"/>
			<line class="st4" x1="231.2" y1="454.3" x2="231.2" y2="360.4"/>
			<line class="st4" x1="265.4" y1="454.3" x2="265.4" y2="360.4"/>
			<line class="st4" x1="299.6" y1="454.3" x2="299.6" y2="360.4"/>
			<line class="st4" x1="332.6" y1="454.3" x2="332.6" y2="360.4"/>
			<line class="st4" x1="365.7" y1="454.3" x2="365.7" y2="360.4"/>
			<line class="st4" x1="399.9" y1="454.3" x2="399.9" y2="360.4"/>
			<line class="st4" x1="434" y1="454.3" x2="434" y2="360.4"/>
			<line class="st4" x1="467.1" y1="454.3" x2="467.1" y2="360.4"/>
			<line class="st4" x1="500.2" y1="454.3" x2="500.2" y2="360.4"/>
			<line class="st4" x1="534.3" y1="454.3" x2="534.3" y2="360.4"/>
			<line class="st4" x1="568.5" y1="454.3" x2="568.5" y2="360.4"/>
			<line class="st4" x1="602.7" y1="454.3" x2="602.7" y2="360.4"/>
			<line class="st4" x1="636.8" y1="454.3" x2="636.8" y2="360.4"/>
			<line class="st4" x1="669.9" y1="454.3" x2="669.9" y2="360.4"/>
			<line class="st4" x1="703" y1="454.3" x2="703" y2="360.4"/>
			<line class="st5" x1="85.1" y1="451.6" x2="730.1" y2="451.6"/>
			<line class="st5" x1="85.1" y1="424.8" x2="730.1" y2="424.8"/>
			<line class="st5" x1="85.1" y1="398" x2="730.1" y2="398"/>
			<line class="st5" x1="85.1" y1="371.2" x2="730.1" y2="371.2"/>
			<line class="st5" x1="114.4" y1="454.3" x2="114.4" y2="360.4"/>
			<line class="st5" x1="151.9" y1="454.3" x2="151.9" y2="360.4"/>
			<line class="st5" x1="182.7" y1="454.3" x2="182.7" y2="360.4"/>
			<line class="st5" x1="215.8" y1="454.3" x2="215.8" y2="360.4"/>
			<line class="st5" x1="246.7" y1="454.3" x2="246.7" y2="360.4"/>
			<line class="st5" x1="284.1" y1="454.3" x2="284.1" y2="360.4"/>
			<line class="st5" x1="315" y1="454.3" x2="315" y2="360.4"/>
			<line class="st5" x1="350.3" y1="454.3" x2="350.3" y2="360.4"/>
			<line class="st5" x1="381.1" y1="454.3" x2="381.1" y2="360.4"/>
			<line class="st5" x1="418.6" y1="454.3" x2="418.6" y2="360.4"/>
			<line class="st5" x1="449.5" y1="454.3" x2="449.5" y2="360.4"/>
			<line class="st5" x1="484.7" y1="454.3" x2="484.7" y2="360.4"/>
			<line class="st5" x1="515.6" y1="454.3" x2="515.6" y2="360.4"/>
			<line class="st5" x1="553.1" y1="454.3" x2="553.1" y2="360.4"/>
			<line class="st5" x1="583.9" y1="454.3" x2="583.9" y2="360.4"/>
			<line class="st5" x1="621.4" y1="454.3" x2="621.4" y2="360.4"/>
			<line class="st5" x1="652.3" y1="454.3" x2="652.3" y2="360.4"/>
			<line class="st5" x1="687.5" y1="454.3" x2="687.5" y2="360.4"/>
			<line class="st5" x1="718.4" y1="454.3" x2="718.4" y2="360.4"/>
			<polyline class="st10" points="114.4,385.9 145.3,389.9 176.1,364.6 207,432.4 237.8,378.8 268.7,405.4 299.6,370.6 330.4,396.2 
				361.3,409 392.2,413.3 423,422 453.9,410.7 484.7,410.7 515.6,393.6 546.5,399.6 577.3,429.4 608.2,409.9 639,396.8 669.9,425.6 
				700.8,450.1 			"/>
		</g>
	</g>
	<g>
		<defs>
			<rect id="SVGID_00000175306859446361004060000015324600492897436852_" x="32.6" y="155.9" width="720" height="360"/>
		</defs>
		<clipPath id="SVGID_00000032624964444220809540000014953452612046241193_">
			<use xlink:href="#SVGID_00000175306859446361004060000015324600492897436852_"  style="overflow:visible;"/>
		</clipPath>
	</g>
	<g>
		<defs>
			<rect id="SVGID_00000170275571514688889260000000808548287020886408_" x="730.1" y="161.4" width="17" height="94"/>
		</defs>
		<clipPath id="SVGID_00000160905920948684792020000017728263604238869143_">
			<use xlink:href="#SVGID_00000170275571514688889260000000808548287020886408_"  style="overflow:visible;"/>
		</clipPath>
		<g style="clip-path:url(#SVGID_00000160905920948684792020000017728263604238869143_);">
			<text transform="matrix(6.123234e-17 1 -1 6.123234e-17 735.4417 186.1613)" class="st12 st13 st14">Depression</text>
		</g>
	</g>
	<g>
		<defs>
			<rect id="SVGID_00000119824934702153373040000012509648286880214941_" x="32.6" y="155.9" width="720" height="360"/>
		</defs>
		<clipPath id="SVGID_00000078014088149284085240000015920344971273106620_">
			<use xlink:href="#SVGID_00000119824934702153373040000012509648286880214941_"  style="overflow:visible;"/>
		</clipPath>
	</g>
	<g>
		<defs>
			<rect id="SVGID_00000047052242738799545570000018303695605171131824_" x="730.1" y="260.9" width="17" height="94"/>
		</defs>
		<clipPath id="SVGID_00000057120588393890135400000004764508621025284012_">
			<use xlink:href="#SVGID_00000047052242738799545570000018303695605171131824_"  style="overflow:visible;"/>
		</clipPath>
		<g style="clip-path:url(#SVGID_00000057120588393890135400000004764508621025284012_);">
			<text transform="matrix(6.123234e-17 1 -1 6.123234e-17 735.4417 293.4581)" class="st12 st13 st14">Anxiety</text>
		</g>
	</g>
	<g>
		<defs>
			<rect id="SVGID_00000050647953361657510430000012569679181999964544_" x="32.6" y="155.9" width="720" height="360"/>
		</defs>
		<clipPath id="SVGID_00000101085873499343591180000006356814019136118692_">
			<use xlink:href="#SVGID_00000050647953361657510430000012569679181999964544_"  style="overflow:visible;"/>
		</clipPath>
	</g>
	<g>
		<defs>
			<rect id="SVGID_00000172430447501182869840000012121685633965204662_" x="730.1" y="360.4" width="17" height="94"/>
		</defs>
		<clipPath id="SVGID_00000014623656089531865990000015551767712420662419_">
			<use xlink:href="#SVGID_00000172430447501182869840000012121685633965204662_"  style="overflow:visible;"/>
		</clipPath>
		<g style="clip-path:url(#SVGID_00000014623656089531865990000015551767712420662419_);">
			<rect x="732.6" y="386.7" class="st2" width="10.4" height="41.4"/>
			<text transform="matrix(6.123234e-17 1 -1 6.123234e-17 735.4709 386.6504)" class="st17"><tspan x="0" y="0" class="st12 st13 st14 st18">Well-be</tspan><tspan x="38.5" y="0" class="st12 st13 st14">-</tspan></text>
		</g>
	</g>
	<g>
		<defs>
			<rect id="SVGID_00000131344458002618260110000005432781936562580365_" x="32.6" y="155.9" width="720" height="360"/>
		</defs>
		<clipPath id="SVGID_00000145768779748471419470000008616222289232436100_">
			<use xlink:href="#SVGID_00000131344458002618260110000005432781936562580365_"  style="overflow:visible;"/>
		</clipPath>
		<g style="clip-path:url(#SVGID_00000145768779748471419470000008616222289232436100_);">
			<text transform="matrix(0.7071 -0.7071 0.7071 0.7071 100.1692 482.4196)" class="st20 st13 st14">Jan 15</text>
			
				<rect x="131.3" y="466.6" transform="matrix(0.7071 -0.7071 0.7071 0.7071 -291.1087 240.6736)" class="st2" width="27.4" height="10.4"/>
			<text transform="matrix(0.7071 -0.7071 0.7071 0.7071 136.9601 483.11)" class="st20 st13 st14">Feb 01</text>
			
				<rect x="162.1" y="466.6" transform="matrix(0.7071 -0.7071 0.7071 0.7071 -282.0712 262.4937)" class="st2" width="27.4" height="10.4"/>
			<text transform="matrix(0.7071 -0.7071 0.7071 0.7071 167.8193 483.1093)" class="st20 st13 st14">Feb 15</text>
			
				<rect x="195.2" y="466.6" transform="matrix(0.7071 -0.7071 0.7071 0.7071 -272.3878 285.888)" class="st2" width="27.4" height="10.4"/>
			<text transform="matrix(0.7071 -0.7071 0.7071 0.7071 200.8952 483.1045)" class="st20 st13 st14">Mar 01</text>
			
				<rect x="226.1" y="466.6" transform="matrix(0.7071 -0.7071 0.7071 0.7071 -263.3498 307.7086)" class="st2" width="27.4" height="10.4"/>
			<text transform="matrix(0.7071 -0.7071 0.7071 0.7071 231.7566 483.1045)" class="st20 st13 st14">Mar 15</text>
			<text transform="matrix(0.7071 -0.7071 0.7071 0.7071 270.2586 482.0705)" class="st20 st13 st14">Apr 01</text>
			<text transform="matrix(0.7071 -0.7071 0.7071 0.7071 301.1187 482.0705)" class="st20 st13 st14">Apr 15</text>
			
				<rect x="328.4" y="467.1" transform="matrix(0.7071 -0.7071 0.7071 0.7071 -233.5276 380.7455)" class="st2" width="28.9" height="10.4"/>
			<text transform="matrix(0.7071 -0.7071 0.7071 0.7071 334.3167 484.1424)" class="st20 st13 st14">May 01</text>
			
				<rect x="359.3" y="467.1" transform="matrix(0.7071 -0.7071 0.7071 0.7071 -224.4868 402.5731)" class="st2" width="28.9" height="10.4"/>
			<text transform="matrix(0.7071 -0.7071 0.7071 0.7071 365.187 484.1431)" class="st20 st13 st14">May 15</text>
			<text transform="matrix(0.7071 -0.7071 0.7071 0.7071 404.3792 482.4196)" class="st20 st13 st14">Jun 01</text>
			<text transform="matrix(0.7071 -0.7071 0.7071 0.7071 435.2393 482.4196)" class="st20 st13 st14">Jun 15</text>
			<text transform="matrix(0.7071 -0.7071 0.7071 0.7071 472.5874 480.3415)" class="st20 st13 st14">Jul 01</text>
			<text transform="matrix(0.7071 -0.7071 0.7071 0.7071 503.4576 480.3415)" class="st20 st13 st14">Jul 15</text>
			<text transform="matrix(0.7071 -0.7071 0.7071 0.7071 537.8101 483.4587)" class="st20 st13 st14">Aug 01</text>
			<text transform="matrix(0.7071 -0.7071 0.7071 0.7071 568.6702 483.4587)" class="st20 st13 st14">Aug 15</text>
			<text transform="matrix(0.7071 -0.7071 0.7071 0.7071 606.1501 483.4587)" class="st20 st13 st14">Sep 01</text>
			<text transform="matrix(0.7071 -0.7071 0.7071 0.7071 637.01 483.4587)" class="st20 st13 st14">Sep 15</text>
			<text transform="matrix(0.7071 -0.7071 0.7071 0.7071 673.6716 482.0671)" class="st20 st13 st14">Oct 01</text>
			<text transform="matrix(0.7071 -0.7071 0.7071 0.7071 704.5317 482.0671)" class="st20 st13 st14">Oct 15</text>
			<rect x="63" y="232.6" class="st2" width="17.1" height="10.4"/>
			<text transform="matrix(1 0 0 1 63.0149 240.1069)" class="st20 st13 st14">1.60</text>
			<rect x="63" y="208.8" class="st2" width="17.1" height="10.4"/>
			<text transform="matrix(1 0 0 1 63.0149 216.377)" class="st20 st13 st14">1.65</text>
			<rect x="63" y="185.1" class="st2" width="17.1" height="10.4"/>
			<text transform="matrix(1 0 0 1 63.0149 192.6567)" class="st20 st13 st14">1.70</text>
			<rect x="63" y="161.4" class="st2" width="17.1" height="10.4"/>
			<text transform="matrix(1 0 0 1 63.0149 168.937)" class="st20 st13 st14">1.75</text>
			<rect x="63" y="331.1" class="st2" width="17.1" height="10.4"/>
			<text transform="matrix(1 0 0 1 63.0149 338.627)" class="st20 st13 st14">1.65</text>
			<rect x="63" y="308.4" class="st2" width="17.1" height="10.4"/>
			<text transform="matrix(1 0 0 1 63.0149 315.9868)" class="st20 st13 st14">1.70</text>
			<rect x="63" y="285.8" class="st2" width="17.1" height="10.4"/>
			<text transform="matrix(1 0 0 1 63.0149 293.3369)" class="st20 st13 st14">1.75</text>
			<rect x="63" y="263.1" class="st2" width="17.1" height="10.4"/>
			<text transform="matrix(1 0 0 1 63.0149 270.6968)" class="st20 st13 st14">1.80</text>
			<rect x="63" y="447.2" class="st2" width="17.1" height="10.4"/>
			<text transform="matrix(1 0 0 1 63.0149 454.7671)" class="st20 st13 st14">44.0</text>
			<rect x="63" y="420.4" class="st2" width="17.1" height="10.4"/>
			<text transform="matrix(1 0 0 1 63.0149 427.957)" class="st20 st13 st14">44.5</text>
			<rect x="63" y="393.6" class="st2" width="17.1" height="10.4"/>
			<text transform="matrix(1 0 0 1 63.0149 401.1567)" class="st20 st13 st14">45.0</text>
			<rect x="63" y="366.8" class="st2" width="17.1" height="10.4"/>
			<text transform="matrix(1 0 0 1 63.0149 374.3472)" class="st20 st13 st14">45.5</text>
			<text transform="matrix(1 0 0 1 395.9644 508.037)" class="st13 st21">Date</text>
			<rect x="36.5" y="228.7" class="st2" width="13" height="158.4"/>
			<text transform="matrix(6.123234e-17 -1 1 6.123234e-17 45.9612 387.0654)" class="st13 st21">Mean of Prediction Per Fortnight</text>
		</g>
	</g>
</g>
<g id="Layer_3">
	<g>
		<g>
			<line class="st22" x1="251.1" y1="165.8" x2="251.1" y2="161.8"/>
			<line class="st23" x1="251.1" y1="153.6" x2="251.1" y2="92.1"/>
			<line class="st22" x1="251.1" y1="88" x2="251.1" y2="84"/>
		</g>
	</g>
	<g>
		<g>
			<line class="st22" x1="317.4" y1="165" x2="317.4" y2="161"/>
			<line class="st24" x1="317.4" y1="152.4" x2="317.4" y2="105"/>
			<line class="st22" x1="317.4" y1="100.7" x2="317.4" y2="96.7"/>
		</g>
	</g>
	<g>
		<g>
			<line class="st22" x1="416.1" y1="135.7" x2="416.1" y2="131.7"/>
			<line class="st25" x1="416.1" y1="124.2" x2="416.1" y2="68.3"/>
			<line class="st22" x1="416.1" y1="64.6" x2="416.1" y2="60.6"/>
		</g>
	</g>
	<g>
		<g>
			<line class="st22" x1="469.1" y1="165" x2="469.1" y2="161"/>
			<line class="st26" x1="469.1" y1="153.1" x2="469.1" y2="63"/>
			<line class="st22" x1="469.1" y1="59" x2="469.1" y2="55"/>
		</g>
	</g>
	<g>
		<g>
			<line class="st22" x1="559" y1="164.6" x2="559" y2="160.6"/>
			<line class="st27" x1="559" y1="153.1" x2="559" y2="126.9"/>
			<line class="st22" x1="559" y1="123.1" x2="559" y2="119.1"/>
		</g>
	</g>
	<text transform="matrix(1 0 0 1 175.4929 27.1154)" class="st28 st13 st29">16th March</text>
	<text transform="matrix(1 0 0 1 176.4929 40.1154)" class="st13 st21">Stay at Home </text>
	<text transform="matrix(1 0 0 1 176.4929 52.1154)" class="st13 st29">guidance</text>
	<text transform="matrix(1 0 0 1 176.4929 64.1154)" class="st13 st29">introduced</text>
	<text transform="matrix(1 0 0 1 338.3232 26.2051)" class="st28 st13 st29">6th -13th June</text>
	<text transform="matrix(1 0 0 1 338.6831 39.7258)" class="st13 st29">Black Lives Matter</text>
	<text transform="matrix(1 0 0 1 338.3232 50.2051)" class="st17"><tspan x="0" y="0" class="st13 st29">protests take place</tspan><tspan x="0" y="12" class="st13 st29">around the UK</tspan></text>
	<text transform="matrix(1 0 0 1 260.7822 43.6249)" class="st28 st13 st29">16th April</text>
	<text transform="matrix(1 0 0 1 260.7822 55.625)" class="st13 st29">Lockdown </text>
	<text transform="matrix(1 0 0 1 260.7822 67.625)" class="st13 st29">extended</text>
	<text transform="matrix(1 0 0 1 546.4764 84.0331)" class="st28 st13 st29">3rd August</text>
	<text transform="matrix(1 0 0 1 546.4764 96.0331)" class="st17"><tspan x="0" y="0" class="st13 st29">Eat Out To Help</tspan><tspan x="0" y="12" class="st13 st29">Out launched</tspan></text>
	<g>
		<g>
			<line class="st22" x1="648.3" y1="165" x2="648.3" y2="161"/>
			<line class="st22" x1="648.3" y1="151.7" x2="648.3" y2="147.7"/>
		</g>
	</g>
	<g>
		<g>
			<line class="st22" x1="372.3" y1="165" x2="372.3" y2="161"/>
			<line class="st30" x1="372.3" y1="156.3" x2="372.3" y2="149.3"/>
			<line class="st22" x1="372.3" y1="147" x2="372.3" y2="143"/>
		</g>
	</g>
	<text transform="matrix(1 0 0 1 336.5691 101.5706)" class="st28 st13 st29">10th May</text>
	<text transform="matrix(1 0 0 1 336.5691 113.5706)" class="st17"><tspan x="0" y="0" class="st13 st29">Plan for lifting</tspan><tspan x="0" y="12" class="st13 st29">restrictions</tspan><tspan x="0" y="24" class="st13 st29">announced</tspan></text>
	<g>
		<g>
			<line class="st22" x1="251.1" y1="84" x2="247.1" y2="84"/>
			<line class="st31" x1="240.8" y1="84" x2="218.7" y2="84"/>
			<line class="st22" x1="215.5" y1="84" x2="211.5" y2="84"/>
		</g>
	</g>
	<text transform="matrix(6.123234e-17 -1 1 6.123234e-17 44.9613 125.8574)" class="st13 st21">National Events</text>
	<g>
		<g>
			<line class="st22" x1="317" y1="97.2" x2="313" y2="97.2"/>
			<line class="st32" x1="306.8" y1="97.2" x2="297.5" y2="97.2"/>
			<line class="st22" x1="294.4" y1="97.2" x2="290.4" y2="97.2"/>
		</g>
	</g>
	<g>
		<g>
			<line class="st22" x1="290.9" y1="97" x2="290.9" y2="93"/>
			<line class="st33" x1="290.9" y1="88" x2="290.9" y2="80.4"/>
			<line class="st22" x1="290.9" y1="77.9" x2="290.9" y2="73.9"/>
		</g>
	</g>
	<g>
		<g>
			<line class="st22" x1="434.9" y1="135.7" x2="430.9" y2="135.7"/>
			<line class="st22" x1="419.7" y1="135.7" x2="415.7" y2="135.7"/>
		</g>
	</g>
	<g>
		<line class="st34" x1="425.3" y1="162.7" x2="425.3" y2="157.1"/>
		<line class="st34" x1="444.5" y1="157.6" x2="425.3" y2="157.6"/>
		<line class="st34" x1="444" y1="162.7" x2="444" y2="157.1"/>
	</g>
	<g>
		<g>
			<line class="st22" x1="434.9" y1="154.9" x2="434.9" y2="150.9"/>
			<line class="st22" x1="434.9" y1="139.7" x2="434.9" y2="135.7"/>
		</g>
	</g>
	<g>
		<g>
			<line class="st22" x1="453.5" y1="165" x2="453.5" y2="161"/>
			<line class="st35" x1="453.5" y1="152.1" x2="453.5" y2="120.9"/>
			<line class="st22" x1="453.5" y1="116.4" x2="453.5" y2="112.4"/>
		</g>
	</g>
	<g>
		<g>
			<line class="st22" x1="529.7" y1="164.6" x2="529.7" y2="160.6"/>
			<line class="st36" x1="529.7" y1="151.9" x2="529.7" y2="69.9"/>
			<line class="st22" x1="529.7" y1="65.6" x2="529.7" y2="61.6"/>
		</g>
	</g>
	<text transform="matrix(1 0 0 1 519.1704 26.4853)" class="st28 st13 st29">20th July</text>
	<rect x="434.9" y="79.6" class="st37" width="71.8" height="44.8"/>
	<text transform="matrix(1 0 0 1 518.1704 39.4853)" class="st17"><tspan x="0" y="0" class="st13 st29">Oxford vaccine</tspan><tspan x="0" y="12" class="st13 st29">success announced</tspan></text>
	<text transform="matrix(1 0 0 1 438.6787 15.2401)" class="st28 st13 st29">23rd June</text>
	<text transform="matrix(1 0 0 1 439.4686 27.3494)" class="st17"><tspan x="0" y="0" class="st13 st29">Relaxation to</tspan><tspan x="0" y="12" class="st13 st29">social distancing</tspan><tspan x="0" y="24" class="st13 st29">announced</tspan></text>
	<text transform="matrix(1 0 0 1 438.3138 93.1874)" class="st28 st13 st29">15th June</text>
	<text transform="matrix(1 0 0 1 438.3138 105.1874)" class="st17"><tspan x="0" y="0" class="st13 st29">Non-essential</tspan><tspan x="0" y="12" class="st13 st29">shops re-open</tspan></text>
	<text transform="matrix(1 0 0 1 648.2625 54.5848)" class="st28 st13 st29">22nd September</text>
	<text transform="matrix(1 0 0 1 648.2625 66.5849)" class="st17"><tspan x="0" y="0" class="st13 st29">New restrictions</tspan><tspan x="0" y="12" class="st13 st29">introduced</tspan></text>
	<g>
		<g>
			<line class="st22" x1="662.4" y1="164.6" x2="662.4" y2="160.6"/>
			<line class="st38" x1="662.4" y1="152.5" x2="662.4" y2="92.1"/>
			<line class="st22" x1="662.4" y1="88" x2="662.4" y2="84"/>
		</g>
	</g>
	<rect x="633.8" y="110" class="st37" width="71.8" height="37.5"/>
	<text transform="matrix(1 0 0 1 620.4249 119.0214)" class="st28 st13 st29">14th September</text>
	<text transform="matrix(1 0 0 1 620.4249 131.0214)" class="st17"><tspan x="0" y="0" class="st13 st29">Rule of 6</tspan><tspan x="0" y="12" class="st13 st29">introduced</tspan></text>
	<text transform="matrix(1 0 0 1 102.459 94.2529)" class="st28 st13 st29">12-26th February</text>
	<text transform="matrix(1 0 0 1 103.459 107.2529)" class="st17"><tspan x="0" y="0" class="st13 st29">Increasing Coronavirus </tspan><tspan x="0" y="12" class="st13 st29">cases reported across </tspan><tspan x="0" y="24" class="st13 st29">Europe and the world</tspan></text>
	<g>
		<g>
			<line class="st22" x1="211.5" y1="84" x2="211.5" y2="80"/>
			<line class="st22" x1="211.5" y1="72.1" x2="211.5" y2="68.1"/>
		</g>
	</g>
	<g>
		<line class="st34" x1="177.3" y1="163.1" x2="177.3" y2="157.6"/>
		<line class="st34" x1="207.8" y1="158.1" x2="177.3" y2="158.1"/>
		<line class="st34" x1="207.1" y1="163.1" x2="207.1" y2="157.6"/>
	</g>
	<g>
		<g>
			<line class="st22" x1="192.5" y1="157.3" x2="192.5" y2="153.3"/>
			<line class="st39" x1="192.6" y1="148.8" x2="192.6" y2="141.9"/>
			<line class="st22" x1="192.6" y1="139.7" x2="192.6" y2="135.7"/>
		</g>
	</g>
</g>
</svg>
