<?xml version="1.0" encoding="utf-8"?>
<!-- Generator: Adobe Illustrator 26.2.1, SVG Export Plug-In . SVG Version: 6.00 Build 0)  -->
<svg version="1.1" xmlns="http://www.w3.org/2000/svg" xmlns:xlink="http://www.w3.org/1999/xlink" x="0px" y="0px"
	 viewBox="0 0 889.2 789" style="enable-background:new 0 0 889.2 789;" xml:space="preserve">
<style type="text/css">
	.st0{fill:none;stroke:#646464;stroke-width:0.65;}
	.st1{fill:#646464;}
	.st2{fill:#007DC7;}
	.st3{fill:#BB5BBF;}
	.st4{fill:#EFEFEF;}
	.st5{font-family:'Helvetica';}
	.st6{font-size:18px;}
</style>
<g id="Graph">
	<g id="polinode-group-edges">
		<path class="st0" d="M296.8,417.1c-17.8-58.9-8.4-113.1,28-162.7"/>
		<path class="st0" d="M469.8,268.7c-50.7,19.4-99.1,14.7-145-14.3"/>
		<path class="st0" d="M423.7,125.2c-11.4,59.6-44.4,102.6-98.9,129.2"/>
		<path class="st0" d="M467.7,299.2c-55.1,8.9-102.8-6-143-44.7"/>
		<path class="st0" d="M524.5,67.5c-35.4,95.6-102,157.9-199.8,186.9"/>
		<path class="st0" d="M608.9,204.9c-86.4,63.9-181.2,80.4-284.1,49.6"/>
		<path class="st0" d="M570.2,294.1c-88.4,27.7-170.3,14.5-245.5-39.7"/>
		<path class="st0" d="M514.6,98.2C477.4,181.9,414.1,234,324.8,254.4"/>
		<path class="st0" d="M471.8,86.8c-21.1,80.4-70.1,136.3-147,167.6"/>
		<path class="st0" d="M514.6,135.5c-43.4,71.3-106.7,110.9-189.8,118.9"/>
		<path class="st0" d="M477.8,123.7c-29.2,69.1-80.2,112.7-153.1,130.8"/>
		<path class="st0" d="M390.9,97.8c4.1,63.2-18,115.4-66.1,156.6"/>
		<path class="st0" d="M430.7,160.9c-19.7,48.8-55,80-105.9,93.5"/>
		<path class="st0" d="M449.5,197.6c-32.1,39.7-73.7,58.7-124.7,56.8"/>
		<path class="st0" d="M581.1,395c-108.9-4.1-194.4-51-256.4-140.6"/>
		<path class="st0" d="M254.4,379.6c2.6-53.5,26.1-95.2,70.4-125.2"/>
		<path class="st0" d="M418.2,87.4c-3.3,71.2-34.5,126.9-93.5,167"/>
		<path class="st0" d="M235.9,402.9c4.9-64.3,34.5-113.8,88.9-148.5"/>
		<path class="st0" d="M261.2,423.2c-7-66.9,14.2-123.1,63.5-168.8"/>
		<path class="st0" d="M530.1,177.1c-55.6,60-124,85.7-205.3,77.3"/>
		<path class="st0" d="M169.4,406.6c26.4-76.6,78.2-127.3,155.4-152.2"/>
		<path class="st0" d="M178.4,433.7c18.9-84.2,67.7-143.9,146.4-179.3"/>
		<path class="st0" d="M490.2,164.8c-40.2,57.4-95.4,87.3-165.5,89.6"/>
		<path class="st0" d="M540.1,216.9c-65.5,48.4-137.3,60.9-215.3,37.5"/>
		<path class="st0" d="M177.9,354.2c32.3-57.7,81.3-91,146.9-99.7"/>
		<path class="st0" d="M220,430.8c5.5-76.3,40.4-135.1,104.7-176.4"/>
		<path class="st0" d="M624.1,360c-117.4,14.7-217.2-20.5-299.4-105.6"/>
		<path class="st0" d="M328.7,461.8c-35.9-68.5-37.2-137.6-3.9-207.3"/>
		<path class="st0" d="M189.3,300.1c37.6-37.8,82.7-53,135.5-45.6"/>
		<path class="st0" d="M168.5,324.3c40.4-49.4,92.5-72.7,156.3-69.9"/>
		<path class="st0" d="M505.9,206.6c-52.4,46.1-112.8,62.1-181.2,47.8"/>
		<path class="st0" d="M436.3,460.5c-71.5-50.1-108.7-118.8-111.6-206.1"/>
		<path class="st0" d="M133.2,325.3c52-55.6,115.9-79.2,191.5-70.9"/>
		<path class="st0" d="M474.1,407c-75.2-26-125-76.8-149.3-152.5"/>
		<path class="st0" d="M137.9,418.9c34.9-86,97.1-140.8,186.8-164.5"/>
		<path class="st0" d="M663.1,246.7c-111.5,59-224.2,61.6-338.3,7.8"/>
		<path class="st0" d="M202.1,403c16.1-70,57.1-119.5,122.7-148.5"/>
		<path class="st0" d="M140.9,356.2c44.3-64.6,105.6-98.5,183.9-101.8"/>
		<path class="st0" d="M107.7,358.9c54.9-71,127.3-105.8,217.1-104.5"/>
		<path class="st0" d="M119.8,390.5c45.7-79.5,114-124.9,205-136.1"/>
		<path class="st0" d="M155.9,382c35-70.7,91.3-113.2,168.9-127.5"/>
		<path class="st0" d="M501.8,486.2c-97.6-47.7-156.6-125-177-231.7"/>
		<path class="st0" d="M284.7,389.9c-9.2-51.8,4.1-97,40-135.5"/>
		<path class="st0" d="M149.7,296.8c51.3-43.3,109.6-57.4,175-42.4"/>
		<path class="st0" d="M102.9,323.1c62.5-59.9,136.5-82.8,221.9-68.7"/>
		<g>
			<path class="st1" d="M111.9,248.7C171,220.8,232,216.1,293.3,240c10.2,3.7,21.7,9.5,31.4,14.5c-7.4-3.8-17.5-8.6-25.1-11.7
				c-3.5-1.5-9.3-3.5-12.9-4.9C227.1,217.1,168.9,222.7,111.9,248.7L111.9,248.7z"/>
		</g>
		<path class="st0" d="M104.9,289.4c67.5-48.3,140.8-60,219.9-35"/>
		<path class="st0" d="M131,273.5c61.4-38.6,126-45,193.7-19.1"/>
		<path class="st0" d="M228.7,358.5c14.7-50.7,46.7-85.4,96.1-104.1"/>
		<g>
			<path class="st1" d="M152.4,251.1c45.7-22.1,93.3-26.9,141.6-10.2c1.5,0.6,6.4,2.3,7.9,2.9c7.2,2.7,15.9,7,22.9,10.6
				c-6-3-14.3-6.8-20.4-9.3C253,224.6,202.2,227.9,152.4,251.1L152.4,251.1z"/>
		</g>
		<path class="st0" d="M323.6,396.6c-23.3-47.6-22.9-95,1.2-142.2"/>
		<path class="st0" d="M205.5,331.4c26.9-45.5,66.6-71.2,119.2-77"/>
		<path class="st0" d="M179.6,271.1c45.6-29.8,94-35.3,145.2-16.7"/>
		<g>
			<path class="st1" d="M137.3,186.2c60.8-7.2,116.4,6.7,163.8,46.1c8,6.3,16.5,14.9,23.6,22.2c-5.5-5.6-13-12.8-18.8-17.8
				c-2.7-2.4-7.2-5.9-10-8.2C249,192.3,195.6,180,137.3,186.2L137.3,186.2z"/>
		</g>
		<path class="st0" d="M191.3,148.4c62.2,13.1,106.7,48.5,133.5,106.1"/>
		<path class="st0" d="M169.4,181.5c63.9-1.6,115.7,22.7,155.3,72.9"/>
		<path class="st0" d="M159.4,151.1c72.3,6.9,127.4,41.3,165.3,103.3"/>
		<path class="st0" d="M125,219.2c72.5-21.6,139-9.8,199.8,35.2"/>
		<path class="st0" d="M191.9,204.3c52.6-5.4,96.9,11.3,132.9,50.1"/>
		<path class="st0" d="M184,237.9c49.7-17.9,96.6-12.4,140.7,16.5"/>
		<path class="st0" d="M558.6,338.3c-91.9,11-169.9-16.9-233.9-83.8"/>
		<path class="st0" d="M311.5,53.3c37.9,64.8,42.3,131.9,13.2,201.1"/>
		<path class="st0" d="M201.7,373.1c21.3-60.1,62.3-99.6,123.1-118.7"/>
		<g>
			<path class="st1" d="M157.1,216.4c49.1-12.3,96.5-7.5,140.3,18.6c1.4,0.9,5.8,3.6,7.1,4.4c6.5,4.1,14.1,10.1,20.2,14.9
				c-5.3-4.2-12.5-9.5-18-13.1C260.7,210.8,210.5,203.8,157.1,216.4L157.1,216.4z"/>
		</g>
		<path class="st0" d="M190.3,117.4c67.7,23.3,112.5,68.9,134.5,137"/>
		<path class="st0" d="M351.8,410.2c-35-47.4-44-99.4-27-155.8"/>
		<path class="st0" d="M529.5,284.9c-73.3,24-141.5,13.8-204.7-30.5"/>
		<path class="st0" d="M405.4,57.9c5.9,78.9-21,144.4-80.6,196.5"/>
		<path class="st0" d="M361.7,83.4c16.2,63.2,3.9,120.2-37,171.1"/>
		<path class="st0" d="M316.3,81.8c31.6,56.1,34.4,113.7,8.5,172.6"/>
		<path class="st0" d="M252.2,99.8c50,39.4,74.1,91,72.6,154.6"/>
		<path class="st0" d="M376.3,51.8c16.6,76.1-0.6,143.7-51.5,202.7"/>
		<path class="st0" d="M273.1,64.9c48.8,54.6,66,117.7,51.6,189.5"/>
		<path class="st0" d="M227.5,86.6c60.4,39.7,92.8,95.7,97.3,167.8"/>
		<path class="st0" d="M221.1,119.6c57,27.7,91.6,72.6,103.7,134.8"/>
		<path class="st0" d="M529.9,399.5c-92.5-14.2-160.9-62.5-205.1-145"/>
		<path class="st0" d="M369.9,387.4c-37.2-36.8-52.3-81.1-45.1-133"/>
		<path class="st0" d="M429.2,360.8c-52.5-18.1-87.3-53.5-104.4-106.4"/>
		<path class="st0" d="M450.1,321.1c-52.9-1.3-94.7-23.5-125.4-66.7"/>
		<path class="st0" d="M406.1,373.9c-47-26.2-74.2-66.1-81.4-119.4"/>
		<path class="st0" d="M397.3,402.3c-48.8-37.2-73-86.5-72.5-147.8"/>
		<path class="st0" d="M345,54.1c26.6,70.1,19.9,136.9-20.3,200.3"/>
		<path class="st0" d="M480.8,55.6c-18.9,92.3-70.9,158.6-156.1,198.9"/>
		<path class="st0" d="M454.2,348.1c-58.8-9.7-101.9-40.9-129.5-93.7"/>
		<path class="st0" d="M464.5,237.5c-43.8,28.9-90.3,34.5-139.7,16.9"/>
		<path class="st0" d="M282.9,92.8c40.9,46.9,54.8,100.8,41.8,161.6"/>
		<path class="st0" d="M336,106.2c21,51.3,17.2,100.7-11.2,148.2"/>
		<path class="st0" d="M396.4,135.2c-4,51.7-27.9,91.4-71.6,119.2"/>
		<path class="st0" d="M304.2,116.7c29.8,42.5,36.7,88.4,20.6,137.7"/>
		<path class="st0" d="M364.5,119.5c9.2,51.6-4,96.6-39.7,134.9"/>
		<path class="st0" d="M265.5,128.1c40.8,32.2,60.5,74.4,59.2,126.3"/>
		<path class="st0" d="M233.2,147.4c48.4,20.4,78.9,56.1,91.6,107"/>
		<path class="st0" d="M208.6,173.6c52.2,7.6,90.9,34.5,116.2,80.8"/>
		<path class="st0" d="M477.8,602.6c-41.5,23.7-84.2,26.1-128.1,7.1"/>
		<path class="st0" d="M435.3,537.6c-16.5,38.3-45,62.3-85.6,72"/>
		<path class="st0" d="M490.6,574.1c-41,35.3-88,47.1-140.9,35.5"/>
		<path class="st0" d="M581.1,395c-41.4,110.1-118.5,181.6-231.4,214.6"/>
		<path class="st0" d="M306,513.7c30.6,24.7,45.2,56.7,43.8,95.9"/>
		<path class="st0" d="M436.7,671.1c-39.2-6-68.2-26.5-87-61.5"/>
		<path class="st0" d="M406.8,734.8c-39.9-32.2-58.9-73.9-57-125.2"/>
		<path class="st0" d="M416,700.9c-37.3-19.4-59.4-49.8-66.2-91.3"/>
		<path class="st0" d="M368.7,507.8c10.6,37.1,4.3,71-19,101.8"/>
		<path class="st0" d="M293.1,703.4c3.3-40.7,22.1-71.9,56.7-93.8"/>
		<g>
			<path class="st1" d="M244.4,591c34.8-10.9,69.6-6.3,99.7,14.6c0,0,5.6,4.1,5.6,4.1l-5.7-3.9C313.3,585.4,279.7,580.9,244.4,591
				L244.4,591z"/>
		</g>
		<path class="st0" d="M462.3,551.7c-27.9,38.1-65.4,57.4-112.5,57.9"/>
		<path class="st0" d="M558.8,643.4c-75.3,23.6-145,12.4-209.1-33.7"/>
		<path class="st0" d="M513,606.8c-53.9,28.2-108.3,29.1-163.2,2.9"/>
		<path class="st0" d="M366,737.2c-26.7-39.8-32.1-82.4-16.3-127.6"/>
		<path class="st0" d="M340.9,718.8c-15.2-37.9-12.3-74.3,8.9-109.2"/>
		<path class="st0" d="M328.7,461.8c31.7,45.8,38.7,95.1,21.1,147.9"/>
		<path class="st0" d="M274.9,522.8c39.4,16.5,64.4,45.4,74.9,86.9"/>
		<path class="st0" d="M436.3,460.5c-4,64.1-32.9,113.9-86.6,149.1"/>
		<path class="st0" d="M223.6,658.2c33.9-37.2,76-53.4,126.1-48.6"/>
		<path class="st0" d="M188.6,557.3c62.4-9.4,116.2,8,161.2,52.3"/>
		<g>
			<path class="st1" d="M216,582.2c45-12.6,88.8-5.6,126.7,22c0,0,7.1,5.4,7.1,5.4l-7.2-5.2C304.5,577.5,260.9,570.4,216,582.2
				L216,582.2z"/>
		</g>
		<path class="st0" d="M175.1,620.5c56.4-32.7,114.6-36.3,174.6-10.9"/>
		<path class="st0" d="M256.1,553.8c40.5,3,71.8,21.6,93.7,55.8"/>
		<path class="st0" d="M243,630.3c32.2-24.7,67.7-31.6,106.8-20.6"/>
		<path class="st0" d="M260.1,666.3c20.4-33.8,50.3-52.7,89.7-56.7"/>
		<path class="st0" d="M501.8,486.2c-30.1,66.5-80.8,107.6-152,123.5"/>
		<g>
			<path class="st1" d="M157.2,579.8c56.8-18.5,112.8-15.7,165.7,13c8.8,4.5,18.6,11.1,26.8,16.8c-6.3-4.3-14.9-9.8-21.4-13.5
				c-3-1.8-8-4.2-11.2-5.9C265.4,564.5,211.9,562.8,157.2,579.8L157.2,579.8z"/>
		</g>
		<path class="st0" d="M155.5,544.9c75.5-10.8,140.3,10.8,194.3,64.8"/>
		<path class="st0" d="M245,518.2c50.2,13,85.1,43.5,104.8,91.4"/>
		<path class="st0" d="M212.4,520.7c60.6,6.8,106.4,36.4,137.3,88.9"/>
		<path class="st0" d="M312.1,725.5c-6.8-44.9,5.8-83.5,37.6-115.8"/>
		<path class="st0" d="M223.8,551.1c51.7-1.5,93.7,18,125.9,58.5"/>
		<path class="st0" d="M265,701.6c12.9-44.8,41.2-75.5,84.8-92"/>
		<path class="st0" d="M213.7,617.6c44-25.3,89.4-28,136.1-8"/>
		<path class="st0" d="M195.9,647.9c44.9-38.4,96.2-51.1,153.9-38.2"/>
		<path class="st0" d="M451.7,699.5c-48.9-13-82.9-42.9-101.9-89.8"/>
		<path class="st0" d="M441.6,729.4c-50.6-24.6-81.2-64.6-91.9-119.8"/>
		<path class="st0" d="M382.8,711.3c-28-28.4-39-62.3-33-101.6"/>
		<path class="st0" d="M185.7,592.4c57.5-21.6,112.2-15.9,164,17.2"/>
		<path class="st0" d="M480.3,716.3c-61.3-13.8-104.8-49.3-130.6-106.7"/>
		<path class="st0" d="M454.7,626.3c-37.8,11.9-72.8,6.4-105-16.7"/>
		<path class="st0" d="M180.1,524.4c70.8,0.1,127.3,28.5,169.7,85.2"/>
		<path class="st0" d="M452.2,581.3c-29.4,26.5-63.6,36-102.5,28.3"/>
		<path class="st0" d="M234.4,686.9c25.6-45,64.1-70.7,115.4-77.2"/>
		<path class="st0" d="M510.8,689.2c-66.9,0.3-120.6-26.2-161-79.5"/>
		<path class="st0" d="M408.4,518.6c-4.4,40.1-23.9,70.4-58.6,91"/>
		<path class="st0" d="M491,633.1c-51,15.7-98.1,7.9-141.3-23.4"/>
		<path class="st0" d="M511.4,653.6c-61.2,12.3-115.1-2.3-161.6-43.9"/>
		<path class="st0" d="M465.5,656.6c-46.4,3.6-85-12-115.8-46.9"/>
		<path class="st0" d="M482.2,681.8c-56.2-2-100.3-26-132.5-72.2"/>
		<path class="st0" d="M581.1,395c14.8,27.9,15.4,56.2,2,84.7"/>
		<path class="st0" d="M624.1,360c6.3,46.7-7.4,86.7-41,119.7"/>
		<path class="st0" d="M436.3,460.5c52.1-18,101.1-11.6,146.8,19.3"/>
		<path class="st0" d="M630.2,550.3c-27.5-15.6-43.2-39.1-47.1-70.5"/>
		<path class="st0" d="M474.1,407c48.5,6.1,84.8,30.4,109.1,72.8"/>
		<path class="st0" d="M662.9,543.1c-37.1-7.8-63.7-28.9-79.7-63.3"/>
		<path class="st0" d="M594.4,546.4c-14.9-20.3-18.6-42.6-11.3-66.7"/>
		<path class="st0" d="M501.8,486.2c26.1-15.7,53.2-17.8,81.4-6.4"/>
		<path class="st0" d="M603,572.2c-22-27.5-28.7-58.3-19.9-92.4"/>
		<path class="st0" d="M644.9,519.1c-27.1-2.8-47.7-15.9-61.7-39.3"/>
		<path class="st0" d="M558.6,338.3c31.8,43.1,39.9,90.3,24.5,141.5"/>
		<path class="st0" d="M529.5,284.9c50.4,56,68.3,121,53.7,194.9"/>
		<path class="st0" d="M529.9,399.5c31.1,17.9,48.9,44.6,53.2,80.3"/>
		<path class="st0" d="M624.1,360c-8.9-16-9.7-32.4-2.2-49.2"/>
		<path class="st0" d="M663.1,246.7c-3,28.3-16.8,49.7-41.2,64.2"/>
		<path class="st0" d="M558.6,338.3c16.5-19.7,37.6-28.8,63.3-27.4"/>
		<path class="st0" d="M529.9,399.5c15.9-44.9,46.6-74.4,92-88.6"/>
		<path class="st0" d="M608.9,204.9c69.5,22.3,116.2,68,140.1,137"/>
		<path class="st0" d="M581.1,395c47.1-45.7,103-63.4,167.8-53.2"/>
		<path class="st0" d="M776.6,275.3c1.9,26.8-7.3,49-27.6,66.6"/>
		<path class="st0" d="M740.5,267.2c15.3,23.5,18.1,48.4,8.5,74.7"/>
		<path class="st0" d="M766.5,311.1c-0.7,13.2-6.6,23.4-17.6,30.8"/>
		<path class="st0" d="M624.1,360c38.6-26.9,80.2-32.9,124.9-18.2"/>
		<path class="st0" d="M663.1,246.7c44.5,17.4,73.1,49.1,85.9,95.2"/>
		<g>
			<path class="st1" d="M558.6,338.3c52.6-25.3,107.2-30,162.2-9.1c9.2,3.2,19.5,8.3,28.2,12.7c-6.7-3.3-15.7-7.5-22.5-10.2
				c-3.2-1.3-8.3-3.1-11.6-4.3C661.4,309.2,609.4,314.6,558.6,338.3L558.6,338.3z"/>
		</g>
		<path class="st0" d="M524.5,67.5c30.6,11.7,50.3,33.3,59.3,64.8"/>
		<path class="st0" d="M608.9,204.9c-20.4-20-28.8-44.2-25-72.6"/>
		<g>
			<path class="st1" d="M514.6,98.2c26.2-0.7,49.7,9.7,66.2,30.2c0,0,3.1,4,3.1,4l-3.2-3.9C563.4,108.3,541,98.4,514.6,98.2
				L514.6,98.2z"/>
		</g>
		<path class="st0" d="M471.8,86.8c44.9-3.5,82.3,11.7,112.1,45.5"/>
		<path class="st0" d="M514.6,135.5c22.6-12.6,45.6-13.7,69.3-3.2"/>
		<path class="st0" d="M477.8,123.7c36.8-14.8,72.1-11.9,106,8.6"/>
		<path class="st0" d="M581.1,395c-42.9-88-42-175.6,2.7-262.7"/>
		<path class="st0" d="M530.1,177.1c10.5-23.9,28.4-38.8,53.8-44.8"/>
		<path class="st0" d="M490.2,164.8c25.8-26.4,57-37.3,93.6-32.5"/>
		<path class="st0" d="M540.1,216.9c0.5-35.5,15-63.7,43.7-84.6"/>
		<path class="st0" d="M505.9,206.6c13.6-37.8,39.6-62.5,77.9-74.3"/>
		<path class="st0" d="M663.1,246.7c-45.5-24.9-71.9-63-79.2-114.4"/>
		<path class="st0" d="M529.5,284.9c-7.3-59.9,10.8-110.8,54.4-152.6"/>
		<path class="st0" d="M480.8,55.6c47.1,8.4,81.5,34,103,76.8"/>
		<path class="st0" d="M713.8,530.9c-42-15.2-69.6-44.2-82.7-86.9"/>
		<path class="st0" d="M701.1,504.6c-33.5-8.6-56.8-28.8-70-60.7"/>
		<path class="st0" d="M663.1,246.7c22.2,71.1,11.6,136.8-32,197.2"/>
		<path class="st0" d="M501.8,486.2c36.1-35.6,79.2-49.7,129.3-42.2"/>
		<path class="st0" d="M529.9,399.5c41.1-2.1,74.9,12.8,101.2,44.4"/>
		<path class="st0" d="M776.6,275.3c-15.3-10.8-23.2-25.5-23.8-44.2"/>
		<path class="st0" d="M740.5,267.2c-1.9-14.1,2.2-26.1,12.3-36"/>
		<path class="st0" d="M766.5,311.1c-17.9-24.4-22.5-51-13.8-80"/>
		<path class="st0" d="M663.1,246.7c27.3-20.1,57.2-25.3,89.7-15.5"/>
		<path class="st0" d="M570.2,294.1c67.3,15.6,114.9,55,142.8,118.2"/>
		<path class="st0" d="M581.1,395C628,378.8,672,384.6,713,412.3"/>
		<path class="st0" d="M770.5,471.4c-29-10.1-48.2-29.8-57.5-59.1"/>
		<path class="st0" d="M778.7,443.4c-27.1,0.6-48.9-9.8-65.6-31.1"/>
		<path class="st0" d="M663.1,246.7c44.3,46.9,60.9,102.1,50,165.6"/>
		<path class="st0" d="M752.2,496.6C725.1,475,712,446.9,713,412.3"/>
		<path class="st0" d="M781.8,377.2c-17.1,23.2-40,34.9-68.8,35.1"/>
		<path class="st0" d="M736.5,465.9c-16.7-13.9-24.6-31.8-23.4-53.6"/>
		<path class="st0" d="M805,412.3c-30.6,12.6-61.3,12.6-91.9,0"/>
		<path class="st0" d="M581.1,395c15-12.9,32.1-17.2,51.4-12.9"/>
		<path class="st0" d="M624.1,360c6.5,6,9.3,13.3,8.4,22.1"/>
		<path class="st0" d="M608.9,204.9c17.1-33.5,44.1-53.5,81.2-60"/>
		<path class="st0" d="M663.1,246.7c-8-38.4,1-72.3,27-101.8"/>
		<path class="st0" d="M663.1,246.7c6-28.2,22.1-48.4,48.2-60.5"/>
		<path class="st0" d="M501.8,486.2c23.5,12.8,37.1,32.4,40.9,58.9"/>
		<path class="st0" d="M665.2,84.2c9.9,3.5,16.5,10.3,19.7,20.3"/>
		<path class="st0" d="M607.7,673.7c5.6-17.7,17.2-29.6,34.7-35.7"/>
		<path class="st0" d="M702.8,602.7c-14.2,21.8-34.4,33.6-60.4,35.3"/>
		<path class="st0" d="M558.8,643.4c27-15.7,54.8-17.5,83.6-5.4"/>
		<path class="st0" d="M640.2,680.7c-6.4-14.6-5.7-28.9,2.2-42.8"/>
		<path class="st0" d="M688.9,636.9c-15.3,8.1-30.8,8.5-46.5,1.1"/>
		<path class="st0" d="M671.4,601.3c-3.6,17.1-13.3,29.3-29.1,36.7"/>
	</g>
	<g id="polinode-group-nodes">
		<circle class="st2" cx="190.3" cy="117.4" r="6.6"/>
		<circle class="st2" cx="227.5" cy="86.6" r="6.6"/>
		<circle class="st2" cx="252.2" cy="99.8" r="6.6"/>
		<circle class="st2" cx="273.1" cy="64.9" r="6.6"/>
		<circle class="st2" cx="221.1" cy="119.6" r="6.6"/>
		<circle class="st2" cx="265.5" cy="128.1" r="6.6"/>
		<circle class="st2" cx="137.3" cy="186.2" r="6.6"/>
		<circle class="st2" cx="191.3" cy="148.4" r="6.6"/>
		<circle class="st2" cx="169.4" cy="181.5" r="6.6"/>
		<circle class="st2" cx="159.4" cy="151.1" r="6.6"/>
		<circle class="st2" cx="125" cy="219.2" r="6.6"/>
		<circle class="st2" cx="191.9" cy="204.3" r="6.6"/>
		<circle class="st2" cx="157.1" cy="216.4" r="6.6"/>
		<circle class="st2" cx="233.2" cy="147.4" r="6.6"/>
		<circle class="st2" cx="208.6" cy="173.6" r="6.6"/>
		<circle class="st2" cx="311.5" cy="53.3" r="6.6"/>
		<circle class="st2" cx="316.3" cy="81.8" r="6.6"/>
		<circle class="st2" cx="282.9" cy="92.8" r="6.6"/>
		<circle class="st2" cx="361.7" cy="83.4" r="6.6"/>
		<circle class="st2" cx="345" cy="54.1" r="6.6"/>
		<circle class="st2" cx="304.2" cy="116.7" r="6.6"/>
		<circle class="st2" cx="336" cy="106.2" r="6.6"/>
		<circle class="st2" cx="364.5" cy="119.5" r="6.6"/>
		<circle class="st2" cx="390.9" cy="97.8" r="6.6"/>
		<circle class="st2" cx="405.4" cy="57.9" r="6.6"/>
		<circle class="st2" cx="376.3" cy="51.8" r="6.6"/>
		<circle class="st2" cx="418.2" cy="87.4" r="6.6"/>
		<circle class="st2" cx="396.4" cy="135.2" r="6.6"/>
		<circle class="st2" cx="423.7" cy="125.2" r="6.6"/>
		<circle class="st2" cx="430.7" cy="160.9" r="6.6"/>
		<circle class="st2" cx="449.5" cy="197.6" r="6.6"/>
		<circle class="st2" cx="111.9" cy="248.7" r="6.6"/>
		<circle class="st2" cx="152.4" cy="251.1" r="6.6"/>
		<circle class="st2" cx="179.6" cy="271.1" r="6.6"/>
		<circle class="st2" cx="184" cy="237.9" r="6.6"/>
		<circle class="st2" cx="149.7" cy="296.8" r="6.6"/>
		<circle class="st2" cx="104.9" cy="289.4" r="6.6"/>
		<circle class="st2" cx="131" cy="273.5" r="6.6"/>
		<circle class="st2" cx="189.3" cy="300.1" r="6.6"/>
		<circle class="st2" cx="133.2" cy="325.3" r="6.6"/>
		<circle class="st2" cx="140.9" cy="356.2" r="6.6"/>
		<circle class="st2" cx="107.7" cy="358.9" r="6.6"/>
		<circle class="st2" cx="102.9" cy="323.1" r="6.6"/>
		<circle class="st2" cx="177.9" cy="354.2" r="6.6"/>
		<circle class="st2" cx="168.5" cy="324.3" r="6.6"/>
		<circle class="st2" cx="119.8" cy="390.5" r="6.6"/>
		<circle class="st2" cx="155.9" cy="382" r="6.6"/>
		<circle class="st2" cx="228.7" cy="358.5" r="6.6"/>
		<circle class="st2" cx="205.5" cy="331.4" r="6.6"/>
		<circle class="st2" cx="201.7" cy="373.1" r="6.6"/>
		<circle class="st2" cx="254.4" cy="379.6" r="6.6"/>
		<circle class="st3" cx="324.8" cy="254.4" r="6.6"/>
		<circle class="st2" cx="284.7" cy="389.9" r="6.6"/>
		<circle class="st2" cx="323.6" cy="396.6" r="6.6"/>
		<circle class="st2" cx="450.1" cy="321.1" r="6.6"/>
		<circle class="st2" cx="369.9" cy="387.4" r="6.6"/>
		<circle class="st2" cx="406.1" cy="373.9" r="6.6"/>
		<circle class="st2" cx="429.2" cy="360.8" r="6.6"/>
		<circle class="st2" cx="471.8" cy="86.8" r="6.6"/>
		<circle class="st2" cx="480.8" cy="55.6" r="6.6"/>
		<circle class="st2" cx="524.5" cy="67.5" r="6.6"/>
		<circle class="st2" cx="514.6" cy="98.2" r="6.6"/>
		<circle class="st2" cx="477.8" cy="123.7" r="6.6"/>
		<circle class="st2" cx="514.6" cy="135.5" r="6.6"/>
		<circle class="st3" cx="583.8" cy="132.3" r="6.6"/>
		<circle class="st2" cx="490.2" cy="164.8" r="6.6"/>
		<circle class="st2" cx="530.1" cy="177.1" r="6.6"/>
		<circle class="st2" cx="505.9" cy="206.6" r="6.6"/>
		<circle class="st2" cx="540.1" cy="216.9" r="6.6"/>
		<circle class="st2" cx="608.9" cy="204.9" r="6.6"/>
		<circle class="st2" cx="665.2" cy="84.2" r="6.6"/>
		<circle class="st3" cx="684.8" cy="104.5" r="6.6"/>
		<circle class="st3" cx="690" cy="144.9" r="6.6"/>
		<circle class="st3" cx="711.3" cy="186.1" r="6.6"/>
		<circle class="st2" cx="469.8" cy="268.7" r="6.6"/>
		<circle class="st2" cx="464.5" cy="237.5" r="6.6"/>
		<circle class="st2" cx="467.7" cy="299.2" r="6.6"/>
		<circle class="st2" cx="529.5" cy="284.9" r="6.6"/>
		<circle class="st2" cx="570.2" cy="294.1" r="6.6"/>
		<circle class="st3" cx="621.9" cy="310.9" r="6.6"/>
		<circle class="st2" cx="454.2" cy="348.1" r="6.6"/>
		<circle class="st2" cx="529.9" cy="399.5" r="6.6"/>
		<circle class="st2" cx="558.6" cy="338.3" r="6.6"/>
		<circle class="st2" cx="581.1" cy="395" r="6.6"/>
		<circle class="st2" cx="663.1" cy="246.7" r="6.6"/>
		<circle class="st2" cx="740.5" cy="267.2" r="6.6"/>
		<circle class="st3" cx="752.8" cy="231.1" r="6.6"/>
		<circle class="st2" cx="776.6" cy="275.3" r="6.6"/>
		<circle class="st2" cx="766.5" cy="311.1" r="6.6"/>
		<circle class="st2" cx="624.1" cy="360" r="6.6"/>
		<circle class="st3" cx="632.5" cy="382.1" r="6.6"/>
		
			<ellipse transform="matrix(0.3827 -0.9239 0.9239 0.3827 146.5302 903.0005)" class="st3" cx="749" cy="341.9" rx="6.6" ry="6.6"/>
		<circle class="st2" cx="781.8" cy="377.2" r="6.6"/>
		<circle class="st2" cx="137.9" cy="418.9" r="6.6"/>
		<circle class="st2" cx="169.4" cy="406.6" r="6.6"/>
		<circle class="st2" cx="178.4" cy="433.7" r="6.6"/>
		
			<ellipse transform="matrix(0.1602 -0.9871 0.9871 0.1602 -199.6154 571.2432)" class="st2" cx="235.9" cy="402.9" rx="6.6" ry="6.6"/>
		<circle class="st2" cx="220" cy="430.8" r="6.6"/>
		<circle class="st2" cx="202.1" cy="403" r="6.6"/>
		<circle class="st2" cx="261.2" cy="423.2" r="6.6"/>
		<circle class="st2" cx="180.1" cy="524.4" r="6.6"/>
		<circle class="st2" cx="188.6" cy="557.3" r="6.6"/>
		<circle class="st2" cx="155.5" cy="544.9" r="6.6"/>
		<circle class="st2" cx="212.4" cy="520.7" r="6.6"/>
		<circle class="st2" cx="274.9" cy="522.8" r="6.6"/>
		<circle class="st2" cx="245" cy="518.2" r="6.6"/>
		<circle class="st2" cx="223.8" cy="551.1" r="6.6"/>
		<circle class="st2" cx="256.1" cy="553.8" r="6.6"/>
		<circle class="st2" cx="296.8" cy="417.1" r="6.6"/>
		<circle class="st2" cx="351.8" cy="410.2" r="6.6"/>
		<circle class="st2" cx="328.7" cy="461.8" r="6.6"/>
		<circle class="st2" cx="397.3" cy="402.3" r="6.6"/>
		<circle class="st2" cx="436.3" cy="460.5" r="6.6"/>
		<circle class="st2" cx="306" cy="513.7" r="6.6"/>
		<circle class="st2" cx="368.7" cy="507.8" r="6.6"/>
		<circle class="st2" cx="408.4" cy="518.6" r="6.6"/>
		<circle class="st2" cx="435.3" cy="537.6" r="6.6"/>
		<circle class="st2" cx="157.2" cy="579.8" r="6.6"/>
		<circle class="st2" cx="185.7" cy="592.4" r="6.6"/>
		<circle class="st2" cx="175.1" cy="620.5" r="6.6"/>
		<circle class="st2" cx="216" cy="582.2" r="6.6"/>
		<circle class="st2" cx="244.4" cy="591" r="6.6"/>
		<circle class="st2" cx="223.6" cy="658.2" r="6.6"/>
		<circle class="st2" cx="213.7" cy="617.6" r="6.6"/>
		<circle class="st2" cx="195.9" cy="647.9" r="6.6"/>
		
			<ellipse transform="matrix(0.9239 -0.3827 0.3827 0.9239 -222.7029 140.9573)" class="st2" cx="243" cy="630.3" rx="6.6" ry="6.6"/>
		<circle class="st2" cx="234.4" cy="686.9" r="6.6"/>
		<circle class="st2" cx="260.1" cy="666.3" r="6.6"/>
		<circle class="st2" cx="265" cy="701.6" r="6.6"/>
		<circle class="st3" cx="349.8" cy="609.6" r="6.6"/>
		<circle class="st2" cx="452.2" cy="581.3" r="6.6"/>
		<circle class="st2" cx="293.1" cy="703.4" r="6.6"/>
		<circle class="st2" cx="312.1" cy="725.5" r="6.6"/>
		<circle class="st2" cx="366" cy="737.2" r="6.6"/>
		<circle class="st2" cx="340.9" cy="718.8" r="6.6"/>
		<circle class="st2" cx="436.7" cy="671.1" r="6.6"/>
		<circle class="st2" cx="416" cy="700.9" r="6.6"/>
		<circle class="st2" cx="451.7" cy="699.5" r="6.6"/>
		<circle class="st2" cx="406.8" cy="734.8" r="6.6"/>
		<circle class="st2" cx="382.8" cy="711.3" r="6.6"/>
		<circle class="st2" cx="441.6" cy="729.4" r="6.6"/>
		<circle class="st2" cx="474.1" cy="407" r="6.6"/>
		<circle class="st2" cx="501.8" cy="486.2" r="6.6"/>
		<circle class="st3" cx="583.1" cy="479.8" r="6.6"/>
		<circle class="st2" cx="462.3" cy="551.7" r="6.6"/>
		<circle class="st3" cx="542.7" cy="545.1" r="6.6"/>
		<circle class="st2" cx="594.4" cy="546.4" r="6.6"/>
		<circle class="st2" cx="603" cy="572.2" r="6.6"/>
		<circle class="st3" cx="631.1" cy="443.9" r="6.6"/>
		<circle class="st3" cx="713" cy="412.3" r="6.6"/>
		<circle class="st2" cx="778.7" cy="443.4" r="6.6"/>
		<circle class="st2" cx="807.3" cy="412.3" r="6.6"/>
		<circle class="st2" cx="736.5" cy="465.9" r="6.6"/>
		<circle class="st2" cx="770.5" cy="471.4" r="6.6"/>
		<circle class="st2" cx="644.9" cy="519.1" r="6.6"/>
		<circle class="st2" cx="701.1" cy="504.6" r="6.6"/>
		<circle class="st2" cx="630.2" cy="550.3" r="6.6"/>
		<circle class="st2" cx="662.9" cy="543.1" r="6.6"/>
		<circle class="st2" cx="752.2" cy="496.6" r="6.6"/>
		<circle class="st2" cx="713.8" cy="530.9" r="6.6"/>
		<circle class="st2" cx="477.8" cy="602.6" r="6.6"/>
		<circle class="st2" cx="490.6" cy="574.1" r="6.6"/>
		<circle class="st2" cx="513" cy="606.8" r="6.6"/>
		<circle class="st2" cx="454.7" cy="626.3" r="6.6"/>
		<circle class="st2" cx="491" cy="633.1" r="6.6"/>
		<circle class="st2" cx="465.5" cy="656.6" r="6.6"/>
		<circle class="st2" cx="511.4" cy="653.6" r="6.6"/>
		<circle class="st2" cx="558.8" cy="643.4" r="6.6"/>
		<circle class="st2" cx="482.2" cy="681.8" r="6.6"/>
		<circle class="st2" cx="510.8" cy="689.2" r="6.6"/>
		<circle class="st2" cx="480.3" cy="716.3" r="6.6"/>
		<circle class="st2" cx="607.7" cy="673.7" r="6.6"/>
		<circle class="st2" cx="702.8" cy="602.7" r="6.6"/>
		<circle class="st2" cx="671.4" cy="601.3" r="6.6"/>
		<circle class="st3" cx="642.4" cy="638" r="6.6"/>
		<circle class="st2" cx="688.9" cy="636.9" r="6.6"/>
		<circle class="st2" cx="640.2" cy="680.7" r="6.6"/>
	</g>
	<g id="polinode-group-edgelabels">
	</g>
</g>
<g id="Layer_3">
	<path class="st4" d="M366.6,286.3h-82c-4.9,0-8.8-3.9-8.8-8.8v-1.6c0-4.9,3.9-8.8,8.8-8.8h82c4.9,0,8.8,3.9,8.8,8.8v1.6
		C375.4,282.3,371.4,286.3,366.6,286.3z"/>
	<path class="st4" d="M386,642.5h-75.6c-4.7,0-8.5-3.8-8.5-8.5v-2.2c0-4.7,3.8-8.5,8.5-8.5H386c4.7,0,8.5,3.8,8.5,8.5v2.2
		C394.5,638.7,390.7,642.5,386,642.5z"/>
	<path class="st4" d="M586.1,572.5h-75.6c-4.7,0-8.5-3.8-8.5-8.5v-2.2c0-4.7,3.8-8.5,8.5-8.5h75.6c4.7,0,8.5,3.8,8.5,8.5v2.2
		C594.6,568.7,590.8,572.5,586.1,572.5z"/>
	<path class="st4" d="M670.7,667.8h-56.9c-4.1,0-7.5-3.3-7.5-7.5v-4.2c0-4.1,3.3-7.5,7.5-7.5h56.9c4.1,0,7.5,3.3,7.5,7.5v4.2
		C678.2,664.5,674.9,667.8,670.7,667.8z"/>
	<path class="st4" d="M614.4,508h-56.8c-4.1,0-7.5-3.3-7.5-7.5v-4.2c0-4.1,3.3-7.5,7.5-7.5h56.8c4.1,0,7.5,3.3,7.5,7.5v4.2
		C621.9,504.7,618.5,508,614.4,508z"/>
	<path class="st4" d="M687,471.4H580.1c-5.3,0-9.6-4.3-9.6-9.6v0c0-5.3,4.3-9.6,9.6-9.6H687c5.3,0,9.6,4.3,9.6,9.6v0
		C696.6,467.1,692.3,471.4,687,471.4z"/>
	<path class="st4" d="M692.6,411.9H585.7c-5.3,0-9.6-4.3-9.6-9.6v0c0-5.3,4.3-9.6,9.6-9.6h106.9c5.3,0,9.6,4.3,9.6,9.6v0
		C702.2,407.6,697.9,411.9,692.6,411.9z"/>
	<path class="st4" d="M778.8,437.4h-116c-5.3,0-9.6-4.3-9.6-9.6l0,0c0-5.3,4.3-9.6,9.6-9.6h116c5.3,0,9.6,4.3,9.6,9.6l0,0
		C788.4,433.1,784.1,437.4,778.8,437.4z"/>
	<path class="st4" d="M643,340.3h-41.9c-3.5,0-6.3-2.8-6.3-6.3v-6.6c0-3.5,2.8-6.3,6.3-6.3H643c3.5,0,6.3,2.8,6.3,6.3v6.6
		C649.3,337.5,646.4,340.3,643,340.3z"/>
	<path class="st4" d="M777,369.1h-55.3c-3.9,0-7.1-3.2-7.1-7.1V357c0-3.9,3.2-7.1,7.1-7.1H777c3.9,0,7.1,3.2,7.1,7.1v4.9
		C784.1,365.9,780.9,369.1,777,369.1z"/>
	<path class="st4" d="M608.3,163.9h-45.1c-3.6,0-6.5-2.9-6.5-6.5v-6.2c0-3.6,2.9-6.5,6.5-6.5h45.1c3.6,0,6.5,2.9,6.5,6.5v6.2
		C614.8,161,611.9,163.9,608.3,163.9z"/>
	<path class="st4" d="M769.1,133.3H614.9c-5.3,0-9.6-4.3-9.6-9.6v0c0-5.3,4.3-9.6,9.6-9.6h154.2c5.3,0,9.6,4.3,9.6,9.6v0
		C778.7,129,774.4,133.3,769.1,133.3z"/>
	<path class="st4" d="M735.9,217.2h-48.1c-3.7,0-6.7-3-6.7-6.7v-5.8c0-3.7,3-6.7,6.7-6.7h48.1c3.7,0,6.7,3,6.7,6.7v5.8
		C742.6,214.2,739.6,217.2,735.9,217.2z"/>
	<path class="st4" d="M771.1,258.7h-33.8c-3.2,0-5.8-2.6-5.8-5.8v-7.7c0-3.2,2.6-5.8,5.8-5.8h33.8c3.2,0,5.8,2.6,5.8,5.8v7.7
		C776.8,256.2,774.2,258.7,771.1,258.7z"/>
	<path class="st4" d="M708.7,175.2h-35.5c-3.2,0-5.9-2.6-5.9-5.9v-7.4c0-3.2,2.6-5.9,5.9-5.9h35.5c3.2,0,5.9,2.6,5.9,5.9v7.4
		C714.5,172.6,711.9,175.2,708.7,175.2z"/>
</g>
<g id="Node_names">
	<text transform="matrix(1 0 0 1 279.5586 281.7472)" class="st5 st6">Depression</text>
	<text transform="matrix(1 0 0 1 561.9694 160.935)" class="st5 st6">PTSD</text>
	<text transform="matrix(1 0 0 1 611.0278 128.6472)" class="st5 st6">Personality Disorder</text>
	<text transform="matrix(1 0 0 1 672.431 171.4332)" class="st5 st6">SAD</text>
	<text transform="matrix(1 0 0 1 687.191 213.2316)" class="st5 st6">ADHD</text>
	<text transform="matrix(1 0 0 1 601.7271 337.3213)" class="st5 st6">OCD</text>
	<text transform="matrix(1 0 0 1 735.5515 255.0111)" class="st5 st6">BPD</text>
	<text transform="matrix(1 0 0 1 579.4828 408.2932)" class="st5 st6">Panic Disorder</text>
	<text transform="matrix(1 0 0 1 721.8568 363.5197)" class="st5 st6">Bipolar</text>
	<text transform="matrix(1 0 0 1 307.3621 637.9617)" class="st5 st6">Suicidality</text>
	<text transform="matrix(1 0 0 1 556.4358 503.4193)" class="st5 st6">Anxiety</text>
	<text transform="matrix(1 0 0 1 506.3792 569.1307)" class="st5 st6">Psychosis</text>
	<text transform="matrix(1 0 0 1 576.8248 467.1003)" class="st5 st6">Schizophrenia</text>
	<text transform="matrix(1 0 0 1 660.2584 433.8419)" class="st5 st6">Eating Disorder</text>
	<text transform="matrix(1 0 0 1 611.0283 663.5753)" class="st5 st6">Generic</text>
</g>
</svg>
